<svg xmlns="http://www.w3.org/2000/svg" viewBox="0 0 640 420"><rect width="640" height="420" fill="#aeb9ad"/><rect y="300" width="640" height="120" fill="#6f7f69"/><ellipse cx="316" cy="262" rx="165" ry="110" fill="#d8c9b5"/><circle cx="300" cy="174" r="112" fill="#d8c9b5"/><path d="M225 110 245 35 290 95M375 108l42-67 9 89" fill="#c3af99"/><ellipse cx="266" cy="175" rx="24" ry="16" fill="#5b675b"/><ellipse cx="350" cy="175" rx="24" ry="16" fill="#5b675b"/><circle cx="270" cy="173" r="6" fill="#151b18"/><circle cx="346" cy="173" r="6" fill="#151b18"/><path d="M300 207q16 12 32 0" fill="none" stroke="#7b6358" stroke-width="5"/><path d="M302 196h25" stroke="#8b6e62" stroke-width="5"/><g stroke="#8a776b" stroke-width="3"><path d="M250 209 150 188"/><path d="M250 218 145 220"/><path d="M365 210 475 190"/><path d="M365 219 480 225"/></g><rect x="455" y="68" width="45" height="45" fill="#aeb9ad" opacity=".95"/><rect x="508" y="90" width="15" height="15" fill="#6f7f69" opacity=".9"/><rect x="505" y="112" width="36" height="36" fill="#aeb9ad" opacity=".95"/><rect x="549" y="130" width="12" height="12" fill="#6f7f69" opacity=".9"/><rect x="545" y="160" width="44" height="44" fill="#aeb9ad" opacity=".95"/><rect x="597" y="182" width="14" height="14" fill="#6f7f69" opacity=".9"/><rect x="480" y="205" width="25" height="25" fill="#aeb9ad" opacity=".95"/><rect x="513" y="217" width="8" height="8" fill="#6f7f69" opacity=".9"/><rect x="520" y="245" width="36" height="36" fill="#aeb9ad" opacity=".95"/><rect x="564" y="263" width="12" height="12" fill="#6f7f69" opacity=".9"/><rect x="570" y="210" width="20" height="20" fill="#aeb9ad" opacity=".95"/><rect x="598" y="220" width="8" height="8" fill="#6f7f69" opacity=".9"/><text x="25" y="392" font-family="sans-serif" font-size="20" fill="#eef1eb">我的暑假正在一点一点没有 · v2</text></svg>